<mxfile host="Electron" modified="2024-02-02T13:25:25.064Z" agent="Mozilla/5.0 (Windows NT 10.0; Win64; x64) AppleWebKit/537.36 (KHTML, like Gecko) draw.io/22.0.2 Chrome/114.0.5735.289 Electron/25.8.4 Safari/537.36" etag="pNsBuG8rCg971WwwrXNr" version="22.0.2" type="device">
  <diagram id="RoFN31DEDuAoprLHtcjy" name="Page-1">
    <mxGraphModel dx="414" dy="242" grid="1" gridSize="10" guides="1" tooltips="1" connect="1" arrows="1" fold="1" page="0" pageScale="1" pageWidth="827" pageHeight="1169" math="0" shadow="0">
      <root>
        <mxCell id="0" />
        <mxCell id="1" parent="0" />
        <mxCell id="3Ych9QoQo4VoyjM5WHYG-4" value="" style="rounded=0;whiteSpace=wrap;html=1;fillColor=none;dashed=1;" parent="1" vertex="1">
          <mxGeometry x="140" y="210" width="240" height="100" as="geometry" />
        </mxCell>
        <mxCell id="NrXn7nHfLIqUMkxgtaWz-8" value="" style="ellipse;whiteSpace=wrap;html=1;aspect=fixed;fillColor=#000000;" parent="1" vertex="1">
          <mxGeometry x="425" y="250" width="20" height="20" as="geometry" />
        </mxCell>
        <mxCell id="NrXn7nHfLIqUMkxgtaWz-9" value="" style="ellipse;whiteSpace=wrap;html=1;aspect=fixed;rounded=0;shadow=0;glass=0;sketch=0;fillColor=none;" parent="1" vertex="1">
          <mxGeometry x="420" y="245" width="30" height="30" as="geometry" />
        </mxCell>
        <mxCell id="3Ych9QoQo4VoyjM5WHYG-5" value="Build applications" style="text;html=1;fillColor=#e1d5e7;align=center;verticalAlign=middle;whiteSpace=wrap;rounded=1;dashed=1;fontStyle=1;fontSize=15;strokeColor=none;gradientColor=none;gradientDirection=south;" parent="1" vertex="1">
          <mxGeometry x="190" y="160" width="140" height="40" as="geometry" />
        </mxCell>
        <mxCell id="3Ych9QoQo4VoyjM5WHYG-9" value="Deploy applications" style="text;html=1;strokeColor=none;fillColor=#e1d5e7;align=center;verticalAlign=middle;whiteSpace=wrap;rounded=1;dashed=1;fontStyle=1;fontSize=15;" parent="1" vertex="1">
          <mxGeometry x="400" y="160" width="90" height="40" as="geometry" />
        </mxCell>
        <mxCell id="6qBjJutos2vkdkk0qgOa-2" value="" style="endArrow=none;dashed=1;html=1;rounded=0;fontSize=15;" parent="1" edge="1">
          <mxGeometry width="50" height="50" relative="1" as="geometry">
            <mxPoint x="440" y="310" as="sourcePoint" />
            <mxPoint x="440" y="210" as="targetPoint" />
            <Array as="points">
              <mxPoint x="400" y="310" />
              <mxPoint x="400" y="210" />
            </Array>
          </mxGeometry>
        </mxCell>
        <mxCell id="hjqb28hFsZi5MVu-S77l-1" value="" style="endArrow=none;dashed=1;html=1;rounded=0;fontSize=15;" parent="1" edge="1">
          <mxGeometry width="50" height="50" relative="1" as="geometry">
            <mxPoint x="80" y="310" as="sourcePoint" />
            <mxPoint x="80" y="210" as="targetPoint" />
            <Array as="points">
              <mxPoint x="120" y="310" />
              <mxPoint x="120" y="210" />
            </Array>
          </mxGeometry>
        </mxCell>
        <mxCell id="hjqb28hFsZi5MVu-S77l-2" value="" style="edgeStyle=orthogonalEdgeStyle;rounded=0;orthogonalLoop=1;jettySize=auto;html=1;exitX=0.5;exitY=0;exitDx=0;exitDy=0;entryX=0;entryY=0.5;entryDx=0;entryDy=0;" parent="1" source="hjqb28hFsZi5MVu-S77l-3" target="hjqb28hFsZi5MVu-S77l-18" edge="1">
          <mxGeometry relative="1" as="geometry">
            <Array as="points">
              <mxPoint x="100" y="260" />
            </Array>
            <mxPoint x="60" y="245" as="targetPoint" />
          </mxGeometry>
        </mxCell>
        <mxCell id="hjqb28hFsZi5MVu-S77l-3" value="" style="ellipse;whiteSpace=wrap;html=1;aspect=fixed;fillColor=#000000;" parent="1" vertex="1">
          <mxGeometry x="90" y="250" width="20" height="20" as="geometry" />
        </mxCell>
        <mxCell id="hjqb28hFsZi5MVu-S77l-4" value="Test applications" style="text;html=1;strokeColor=none;fillColor=#e1d5e7;align=center;verticalAlign=middle;whiteSpace=wrap;rounded=1;dashed=1;fontStyle=1;fontSize=15;" parent="1" vertex="1">
          <mxGeometry x="30" y="160" width="90" height="40" as="geometry" />
        </mxCell>
        <mxCell id="hjqb28hFsZi5MVu-S77l-18" value="Containerize applications" style="rounded=1;whiteSpace=wrap;html=1;glass=0;fillColor=#ffe6cc;strokeColor=#d79b00;" parent="1" vertex="1">
          <mxGeometry x="160" y="230" width="80" height="60" as="geometry" />
        </mxCell>
        <mxCell id="4251CE4mGrURXaeqV2rG-1" value="Build and publish Greengrass components" style="rounded=1;whiteSpace=wrap;html=1;fillColor=#dae8fc;strokeColor=#6c8ebf;" parent="1" vertex="1">
          <mxGeometry x="280" y="230" width="80" height="60" as="geometry" />
        </mxCell>
        <mxCell id="4251CE4mGrURXaeqV2rG-2" value="" style="endArrow=classic;html=1;rounded=0;exitX=1;exitY=0.5;exitDx=0;exitDy=0;entryX=0;entryY=0.5;entryDx=0;entryDy=0;" parent="1" source="hjqb28hFsZi5MVu-S77l-18" target="4251CE4mGrURXaeqV2rG-1" edge="1">
          <mxGeometry width="50" height="50" relative="1" as="geometry">
            <mxPoint x="270" y="380" as="sourcePoint" />
            <mxPoint x="320" y="330" as="targetPoint" />
          </mxGeometry>
        </mxCell>
        <mxCell id="4251CE4mGrURXaeqV2rG-3" value="" style="endArrow=classic;html=1;rounded=0;exitX=1;exitY=0.5;exitDx=0;exitDy=0;entryX=0;entryY=0.5;entryDx=0;entryDy=0;" parent="1" source="4251CE4mGrURXaeqV2rG-1" target="NrXn7nHfLIqUMkxgtaWz-9" edge="1">
          <mxGeometry width="50" height="50" relative="1" as="geometry">
            <mxPoint x="250" y="270" as="sourcePoint" />
            <mxPoint x="290" y="270" as="targetPoint" />
          </mxGeometry>
        </mxCell>
        <mxCell id="4251CE4mGrURXaeqV2rG-4" value="" style="sketch=0;points=[[0,0,0],[0.25,0,0],[0.5,0,0],[0.75,0,0],[1,0,0],[0,1,0],[0.25,1,0],[0.5,1,0],[0.75,1,0],[1,1,0],[0,0.25,0],[0,0.5,0],[0,0.75,0],[1,0.25,0],[1,0.5,0],[1,0.75,0]];outlineConnect=0;fontColor=#232F3E;fillColor=#ED7100;strokeColor=#ffffff;dashed=0;verticalLabelPosition=bottom;verticalAlign=top;align=center;html=1;fontSize=12;fontStyle=0;aspect=fixed;shape=mxgraph.aws4.resourceIcon;resIcon=mxgraph.aws4.ecr;" parent="1" vertex="1">
          <mxGeometry x="180" y="330" width="40" height="40" as="geometry" />
        </mxCell>
        <mxCell id="4251CE4mGrURXaeqV2rG-5" value="Docker images" style="text;html=1;strokeColor=none;fillColor=none;align=center;verticalAlign=middle;whiteSpace=wrap;rounded=0;" parent="1" vertex="1">
          <mxGeometry x="157.5" y="370" width="85" height="20" as="geometry" />
        </mxCell>
        <mxCell id="4251CE4mGrURXaeqV2rG-6" value="" style="endArrow=classic;html=1;rounded=0;exitX=0.5;exitY=1;exitDx=0;exitDy=0;entryX=0.5;entryY=0;entryDx=0;entryDy=0;entryPerimeter=0;dashed=1;" parent="1" edge="1">
          <mxGeometry width="50" height="50" relative="1" as="geometry">
            <mxPoint x="199.57" y="290" as="sourcePoint" />
            <mxPoint x="199.57" y="330" as="targetPoint" />
          </mxGeometry>
        </mxCell>
        <mxCell id="4251CE4mGrURXaeqV2rG-8" value="AWS IoT Greengrass" style="text;html=1;strokeColor=none;fillColor=none;align=center;verticalAlign=middle;whiteSpace=wrap;rounded=0;" parent="1" vertex="1">
          <mxGeometry x="258.75" y="370" width="122.5" height="20" as="geometry" />
        </mxCell>
        <mxCell id="4251CE4mGrURXaeqV2rG-9" value="" style="endArrow=classic;html=1;rounded=0;exitX=0.5;exitY=1;exitDx=0;exitDy=0;entryX=0.5;entryY=0;entryDx=0;entryDy=0;entryPerimeter=0;dashed=1;" parent="1" source="4251CE4mGrURXaeqV2rG-1" edge="1">
          <mxGeometry width="50" height="50" relative="1" as="geometry">
            <mxPoint x="209.57" y="300" as="sourcePoint" />
            <mxPoint x="320" y="330.0000000000001" as="targetPoint" />
          </mxGeometry>
        </mxCell>
        <mxCell id="4251CE4mGrURXaeqV2rG-10" value="" style="sketch=0;points=[[0,0,0],[0.25,0,0],[0.5,0,0],[0.75,0,0],[1,0,0],[0,1,0],[0.25,1,0],[0.5,1,0],[0.75,1,0],[1,1,0],[0,0.25,0],[0,0.5,0],[0,0.75,0],[1,0.25,0],[1,0.5,0],[1,0.75,0]];outlineConnect=0;fontColor=#232F3E;fillColor=#7AA116;strokeColor=#ffffff;dashed=0;verticalLabelPosition=bottom;verticalAlign=top;align=center;html=1;fontSize=12;fontStyle=0;aspect=fixed;shape=mxgraph.aws4.resourceIcon;resIcon=mxgraph.aws4.greengrass;" parent="1" vertex="1">
          <mxGeometry x="300" y="330" width="40" height="40" as="geometry" />
        </mxCell>
      </root>
    </mxGraphModel>
  </diagram>
</mxfile>
